<svg width="1440" height="398" viewBox="0 0 1440 398" fill="none" xmlns="http://www.w3.org/2000/svg">
<path d="M1440 169.98C1440 169.98 1349.5 240.915 1180.5 212.253C1011.5 183.591 895.5 298.239 720 316.831C544.5 335.422 400.5 295.5 275.5 295.5C150.5 295.5 0.00012207 398 0.00012207 398L8.72761e-05 3.81848e-06L120 -6.67226e-06C240 -1.7163e-05 480 -3.81444e-05 720 -5.91259e-05C960 -8.01074e-05 1200 -0.000101089 1320 -0.00011158L1440 -0.00012207L1440 169.98Z" fill="#A0DFFF"/>
<path d="M1440 169.98C1440 169.98 1349.5 240.915 1180.5 212.253C1011.5 183.591 895.5 298.239 720 316.831C544.5 335.422 400.5 295.5 275.5 295.5C150.5 295.5 0.00012207 398 0.00012207 398L8.72761e-05 3.81848e-06L120 -6.67226e-06C240 -1.7163e-05 480 -3.81444e-05 720 -5.91259e-05C960 -8.01074e-05 1200 -0.000101089 1320 -0.00011158L1440 -0.00012207L1440 169.98Z" fill="url(#paint0_linear_10_6)"/>
<defs>
<linearGradient id="paint0_linear_10_6" x1="0.000117378" y1="298.395" x2="1440" y2="298.395" gradientUnits="userSpaceOnUse">
<stop stop-color="#93D0EF"/>
<stop offset="1" stop-color="white" stop-opacity="0"/>
</linearGradient>
</defs>
</svg>
